<svg xmlns="http://www.w3.org/2000/svg" xmlns:xlink="http://www.w3.org/1999/xlink" preserveAspectRatio="xMidYMid" width="61" height="56" viewBox="0 0 61 56">
  <defs>
    <style>

      .cls-3 {
        fill: #000000;
        stroke: #333333;
        stroke-linejoin: round;
        stroke-width: 2px;
        fill-opacity: 0;
      }

      .cls-4 {
        fill: #ecce06;
      }
    </style>
  </defs>
  <g id="first-confsvg">
    <path d="M56.404,46.247 C56.404,46.247 4.603,46.247 4.603,46.247 C2.626,46.247 1.012,44.598 1.012,42.592 C1.012,42.592 1.012,4.664 1.012,4.664 C1.012,2.658 2.626,1.009 4.603,1.009 C4.603,1.009 56.404,1.009 56.404,1.009 C58.379,1.009 59.993,2.658 59.993,4.664 C59.993,4.664 59.993,42.592 59.993,42.592 C59.993,44.598 58.379,46.247 56.404,46.247 ZM55.499,6.136 C55.499,6.136 5.503,6.136 5.503,6.136 C5.503,6.136 5.503,39.904 5.503,39.904 C5.503,39.904 55.499,39.904 55.499,39.904 C55.499,39.904 55.499,6.136 55.499,6.136 ZM37.245,47.984 C37.245,47.984 44.025,54.997 44.025,54.997 C44.025,54.997 17.078,54.997 17.078,54.997 C17.078,54.997 23.856,47.984 23.856,47.984 C23.856,47.984 37.245,47.984 37.245,47.984 Z" id="path-1" class="cls-3" fill-rule="evenodd"/>
    <path d="M45.999,19.947 C45.595,19.947 45.220,19.836 44.886,19.657 C44.886,19.657 38.712,25.332 38.712,25.332 C38.777,25.554 38.823,25.785 38.823,26.029 C38.823,27.383 37.745,28.478 36.418,28.478 C35.091,28.478 34.013,27.383 34.013,26.029 C34.013,25.876 34.031,25.727 34.057,25.582 C32.148,23.928 29.486,21.622 27.904,20.252 C27.555,20.452 27.158,20.576 26.729,20.576 C26.209,20.576 25.732,20.405 25.339,20.119 C22.846,22.077 17.477,26.475 14.426,28.981 C14.494,29.206 14.541,29.441 14.541,29.689 C14.541,31.038 13.463,32.133 12.138,32.133 C10.811,32.133 9.735,31.038 9.735,29.689 C9.735,28.337 10.811,27.242 12.138,27.242 C12.645,27.242 13.113,27.404 13.501,27.677 C13.501,27.677 24.483,18.977 24.483,18.977 C24.387,18.712 24.326,18.429 24.326,18.130 C24.326,16.778 25.402,15.683 26.729,15.683 C28.056,15.683 29.131,16.778 29.131,18.130 C29.131,18.428 29.071,18.711 28.975,18.975 C30.793,20.549 33.339,22.754 34.925,24.125 C35.336,23.790 35.851,23.582 36.418,23.582 C36.900,23.582 37.346,23.730 37.722,23.978 C39.392,22.441 42.047,20.000 43.773,18.414 C43.661,18.131 43.596,17.824 43.596,17.501 C43.596,16.149 44.671,15.054 45.999,15.054 C47.326,15.054 48.401,16.149 48.401,17.501 C48.401,18.852 47.326,19.947 45.999,19.947 Z" id="path-2" class="cls-4" fill-rule="evenodd"/>
  </g>
</svg>
