<?xml version="1.0" encoding="utf-8"?><svg width="184" height="131" viewBox="0 0 184 131" xmlns="http://www.w3.org/2000/svg" xmlns:xlink="http://www.w3.org/1999/xlink"><svg preserveAspectRatio="xMidYMid" width="58" height="67" viewBox="0 0 58 67" id="evolution" x="65"><defs><style>.cls-3{fill:#333}.cls-4{fill:#f8de2e}</style></defs><g id="aevolutionsvg-evolutionpng-evolution2xpng" fill-rule="evenodd"><path d="M57.587 42.047c-.28 1.002-.75 1.9-1.36 2.713.11 1.145.25 6.52-6.308 11.45-2.51 1.89-4.87 4.64-7.018 8.168l-.212.25c-.138.115-2.924 2.37-6.262 2.372-.626 0-1.274-.08-1.93-.275-2.316-.67-4.166-2.563-5.53-5.61-1.365 3.047-3.212 4.94-5.53 5.61-.653.194-1.3.275-1.93.275-3.336 0-6.123-2.257-6.258-2.373l-.212-.25c-2.15-3.53-4.51-6.282-7.017-8.168-6.566-4.94-6.424-10.314-6.31-11.452-.603-.814-1.076-1.71-1.36-2.71-1.22-4.35 1.067-8.887 1.43-9.568-1.47-9.094 2.254-12.13 3.545-12.896-.502-5.95 2.833-8.49 3.918-9.148.09-1.092.402-2.117.947-3.063 2.1-3.612 6.785-4.776 7.452-4.926C19.182.832 20.83 0 22.56 0l.092.002c2.977.05 5.25 2.52 6.326 3.95 1.077-1.43 3.35-3.9 6.326-3.95L35.396 0c1.733 0 3.378.832 4.92 2.447.666.15 5.356 1.314 7.45 4.926.545.946.85 1.97.947 3.063 1.085.657 4.42 3.198 3.918 9.15 1.3.765 5.016 3.803 3.545 12.896.37.69 2.653 5.22 1.412 9.565zm-29.75-36.32c-.543-.823-2.64-3.722-5.222-3.76l-.05-.004c-1.754 0-3.5 1.346-5.18 4.007-.29.46-.9.59-1.35.302-.358-.228-.51-.643-.426-1.033-1.326.62-2.855 1.615-3.723 3.125-.842 1.46-.94 3.212-.297 5.215.168.517-.11 1.073-.63 1.24l-.3.048c-.414 0-.8-.266-.932-.682-.16-.492-.25-.966-.337-1.44-1.445 1.31-3.64 4.673-.772 11.954.2.502-.047 1.076-.552 1.277l-.362.07c-.388 0-.76-.235-.912-.624-.522-1.334-.876-2.546-1.12-3.674-1.277 1.162-3.4 4.404-1.55 12.447.12.53-.206 1.062-.736 1.183l-.22.024-.455-.126c-.968 2.746-1.832 7.67 2.982 10.375.473.268.64.868.374 1.342-.18.323-.513.503-.857.503l-.48-.12c-.354-.203-.654-.433-.97-.66.326 1.89 1.492 4.94 5.442 7.913 2.67 2.012 5.167 4.894 7.42 8.56.615.46 3.5 2.465 6.293 1.64 2.095-.61 3.747-2.677 4.926-6.15l-.003-52.952zM55.23 35.296l-.437.117-.22-.025c-.53-.125-.857-.652-.736-1.183 1.846-8.04-.276-11.28-1.55-12.443-.246 1.127-.595 2.34-1.123 3.67-.153.39-.52.624-.912.624l-.36-.07c-.503-.2-.75-.772-.55-1.276 2.867-7.283.67-10.644-.775-11.954-.088.472-.176.948-.337 1.44-.136.415-.517.68-.935.68l-.298-.046c-.515-.167-.797-.723-.63-1.24.645-2.002.545-3.757-.297-5.216-.87-1.507-2.392-2.5-3.72-3.123.08.39-.068.805-.424 1.03-.45.293-1.06.16-1.352-.3-1.685-2.657-3.426-4.007-5.182-4.007l-.052.002c-2.346.038-4.44 2.544-5.218 3.757v52.954c1.183 3.474 2.842 5.54 4.937 6.15 2.79.815 5.667-1.18 6.28-1.64 2.252-3.67 4.75-6.552 7.42-8.565 3.947-2.967 5.117-6.017 5.437-7.903-.312.224-.61.457-.965.656l-.48.123c-.34 0-.677-.18-.857-.504-.266-.477-.095-1.077.376-1.343 1.797-1.008 2.957-2.403 3.444-4.147.624-2.228.084-4.596-.483-6.218zm-3.545 5.002l-.01.208c-.044.28-1.063 6.9-5.153 7.45l-.132.007c-.483 0-.904-.36-.97-.854-.07-.54.31-1.035.84-1.11 2.135-.284 3.222-4.188 3.464-5.682-.448-6.9 2-9.445 2.106-9.552.383-.385 1.006-.385 1.387 0 .38.38.383.998.01 1.383-.05.06-1.944 2.22-1.542 8.15zm-10.453 7.88c.665 1.608 2.957 2.056 4.76 2.152.54.03.957.492.932 1.026-.03.53-.46.937-.98.937l-.05-.002c-3.444-.185-5.62-1.312-6.47-3.363-.36-.872-.403-1.798-.283-2.7-.79.42-1.803.81-2.852.81-.203 0-.406-.01-.61-.042-1.06-.162-1.958-.775-2.592-1.77-.3-.457-.16-1.067.293-1.362.45-.294 1.06-.162 1.353.297.333.52.728.806 1.237.887 1.274.196 2.91-.9 3.44-1.34.176-.146.386-.204.59-.212.367-.737.78-1.362 1.122-1.74 3.906-4.393 4.063-8.005 4.063-8.044.02-.538.454-.98 1.007-.953.537.013.966.458.954 1-.004.174-.128 4.332-4.56 9.31-.82.93-2.07 3.38-1.354 5.11zm-4.234-15.054c-.176.023-.783.1-1.553.102-1.748 0-4.37-.39-4.98-2.644-.14-.524.164-1.066.69-1.21.523-.136 1.062.167 1.203.692.38 1.388 3.54 1.23 4.368 1.11.52-.07 1.03.297 1.11.837.072.538-.303 1.036-.838 1.113zm-.67-6l-.373.075c-.39 0-.75-.227-.904-.606-2.82-6.847-.378-16.424-.27-16.828.133-.525.663-.852 1.19-.702.525.136.84.673.7 1.202-.018.092-2.378 9.346.19 15.572.205.506-.032 1.08-.532 1.288zm1.52 24.59c.516-.08 1.03.282 1.117.82.084.535-.28 1.04-.812 1.124-.172.027-3.71.67-4.66 4.3-.114.442-.512.735-.95.735l-.25-.035c-.52-.138-.83-.675-.695-1.2 1.285-4.903 6.044-5.71 6.25-5.743zm-1.685 8.68c2.475.582 6.377-4.187 8.258-7.31.282-.463.892-.61 1.347-.33.466.28.613.885.33 1.355-.537.894-5.133 8.3-9.54 8.3-.277 0-.547-.033-.82-.088-.53-.122-.864-.645-.743-1.18.116-.53.64-.86 1.17-.747zm-10.747-1.705c-.434 0-.833-.293-.947-.735-.96-3.674-4.614-4.292-4.655-4.296-.533-.085-.9-.59-.816-1.127.084-.54.587-.9 1.12-.82.2.032 4.962.84 6.24 5.742.14.522-.17 1.062-.696 1.2l-.248.036zm-4.45-25.567c-.537-.076-.908-.574-.836-1.112.077-.54.587-.895 1.11-.838 1.28.18 4.022.146 4.363-1.11.146-.522.685-.827 1.207-.69.523.142.827.682.688 1.21-.61 2.253-3.233 2.643-4.98 2.643-.776 0-1.376-.077-1.552-.102zm1.043-5.923l-.376-.075c-.497-.207-.735-.782-.53-1.287 2.57-6.24.21-15.48.19-15.575-.142-.527.172-1.066.698-1.202.527-.154 1.057.173 1.193.702.103.404 2.55 9.98-.27 16.83-.157.38-.523.607-.906.607zM20.637 7.014c-.044.024-1.78.942-1.998 2.556-.176 1.297.666 2.86 2.448 4.512.394.368.42.993.05 1.393-.192.21-.453.316-.72.316-.238 0-.476-.087-.666-.262-.42-.39-.782-.78-1.116-1.17.063.288.016.595-.182.84-.147.183-3.61 4.563-1.047 8.914l.1.24c.127.456 1.198 4.514.177 6.827-.16.366-.522.583-.895.583l-.4-.084c-.493-.223-.717-.804-.497-1.302.6-1.36.04-4.29-.243-5.38-3.134-5.504 1.102-10.822 1.286-11.047.292-.355.77-.436 1.167-.25-1.124-1.514-1.604-2.994-1.4-4.42.376-2.653 2.945-3.972 3.055-4.027.484-.245 1.073-.044 1.316.44.24.486.045 1.077-.436 1.32zm-4.304 26.803c.175.414.798 1.53 1.63 1.773.427.127.906 0 1.45-.376.44-.31 1.054-.202 1.36.25.31.445.2 1.06-.25 1.37-.847.59-1.61.774-2.235.774-.342 0-.642-.056-.887-.13-1.873-.557-2.784-2.664-2.883-2.903-1.377-3.277-2.704-3.084-2.698-3.077-.52.166-1.043-.114-1.21-.63-.17-.518.133-1.083.647-1.256.296-.093 2.97-.82 5.074 4.205zm-3.794 13.29c-.067.496-.488.855-.97.855l-.134-.01c-4.09-.546-5.112-7.166-5.154-7.447l-.01-.212c.408-5.977-1.523-8.125-1.543-8.148-.363-.39-.354-1.015.03-1.387.383-.375.993-.372 1.367.006.108.107 2.555 2.653 2.11 9.552.256 1.58 1.322 5.398 3.46 5.683.536.073.91.567.843 1.108zm-.567 3.23c1.804-.098 4.094-.552 4.76-2.155.72-1.727-.527-4.177-1.35-5.11-4.432-4.98-4.56-9.135-4.565-9.31-.008-.544.422-.992.96-1.003.57.06.99.418 1 .958.005.056.17 3.66 4.068 8.04.337.384.75 1.006 1.12 1.745.21.006.416.06.588.208.532.44 2.176 1.543 3.443 1.34.507-.08.9-.357 1.237-.885.29-.454.9-.585 1.354-.296.455.293.586.903.294 1.36-.636.993-1.534 1.607-2.595 1.768-.204.03-.406.044-.61.044-1.046 0-2.06-.39-2.852-.81.117.903.08 1.832-.284 2.702-.85 2.05-3.026 3.18-6.467 3.363l-.05.007c-.52 0-.95-.408-.978-.937-.027-.54.39-1 .928-1.03zm.22 2.416c.465-.28 1.064-.135 1.346.33 1.88 3.123 5.772 7.883 8.257 7.31.532-.113 1.053.216 1.17.747.113.533-.216 1.058-.748 1.177-.274.058-.544.09-.82.09-4.405 0-9.004-7.407-9.54-8.3-.28-.47-.13-1.07.332-1.354z" id="apath-1" class="cls-3"/><path d="M47.33 30.865c-.17.498-.686.782-1.193.635-.094.008-1.358-.098-2.693 3.085-.095.23-1.01 2.343-2.882 2.898-.245.073-.543.127-.884.127-.63 0-1.39-.185-2.237-.773-.447-.31-.555-.924-.248-1.37.306-.45.92-.563 1.36-.25.547.38 1.018.498 1.45.377.83-.247 1.458-1.363 1.633-1.77 2.106-5.03 4.776-4.305 5.074-4.207.51.172.788.73.62 1.248zM42.315 25c-.39 1.483-.784 4.154-.244 5.378.22.496-.003 1.08-.497 1.3l-.394.085c-.376 0-.736-.217-.897-.584-1.023-2.314.05-6.376.176-6.83l.1-.235c2.576-4.375-1.013-8.874-1.05-8.916-.2-.246-.246-.553-.18-.838-.338.385-.7.774-1.12 1.166-.19.175-.428.263-.666.263-.264 0-.524-.106-.72-.315-.367-.4-.343-1.023.054-1.393 1.785-1.66 2.63-3.225 2.443-4.523-.23-1.617-1.97-2.534-1.99-2.544-.483-.243-.68-.835-.44-1.32.245-.485.832-.684 1.317-.442.11.055 2.68 1.375 3.056 4.026.2 1.427-.278 2.908-1.404 4.422.396-.186.878-.103 1.166.25.184.225 4.423 5.542 1.29 11.047z" id="apath-2" class="cls-4"/></g></svg><svg preserveAspectRatio="xMidYMid" width="61" height="56" viewBox="0 0 61 56" id="first-conf" x="123"><defs><style>.cls-3{fill:#000;stroke:#333;stroke-linejoin:round;stroke-width:2px;fill-opacity:0}.cls-4{fill:#ecce06}</style></defs><g id="bfirst-confsvg" fill-rule="evenodd"><path d="M56.404 46.247h-51.8c-1.978 0-3.592-1.65-3.592-3.655V4.664c0-2.006 1.614-3.655 3.59-3.655h51.802c1.975 0 3.59 1.648 3.59 3.654v37.928c0 2.006-1.615 3.655-3.59 3.655zM55.5 6.137H5.502v33.767H55.5V6.136zM37.244 47.983l6.78 7.013H17.078l6.778-7.013h13.39z" id="bpath-1" class="cls-3"/><path d="M46 19.947c-.405 0-.78-.11-1.114-.29l-6.174 5.675c.065.222.11.453.11.697 0 1.353-1.077 2.448-2.404 2.448s-2.405-1.095-2.405-2.45c0-.152.018-.3.044-.446l-6.153-5.33c-.35.2-.746.324-1.175.324-.52 0-.998-.17-1.39-.457-2.494 1.957-7.863 6.355-10.914 8.86.068.226.115.46.115.71 0 1.348-1.077 2.443-2.402 2.443-1.327 0-2.403-1.095-2.403-2.444 0-1.353 1.076-2.448 2.403-2.448.507 0 .975.162 1.363.435l10.983-8.7c-.096-.265-.157-.548-.157-.847 0-1.352 1.076-2.447 2.403-2.447 1.326 0 2.4 1.095 2.4 2.447 0 .298-.06.58-.155.845 1.818 1.574 4.364 3.78 5.95 5.15.41-.335.926-.543 1.493-.543.482 0 .928.148 1.304.396l6.05-5.564c-.11-.283-.176-.59-.176-.913 0-1.35 1.075-2.446 2.403-2.446 1.326 0 2.4 1.095 2.4 2.447s-1.074 2.447-2.4 2.447z" id="bpath-2" class="cls-4"/></g></svg><svg preserveAspectRatio="xMidYMid" width="18" height="16" viewBox="0 0 18 16" id="lunch" x="56" y="71"><defs><style>.cls-2{fill:#a9a9a9}</style></defs><path d="M16.427 5.888c-.963.958-2 1.238-3.09.785-.213-.09-.444-.076-.597.084l-2.277 2.385 5.378 5.056c.16.148.263.374.26.597-.003.22-.08.455-.242.616l-.343.34c-.162.163-.397.24-.62.242-.225.003-.444-.092-.594-.248l-5.074-5.306-4.893 5.125c-.15.155-.356.24-.577.238-.22 0-.435-.093-.594-.25l-.337-.336c-.16-.16-.25-.372-.254-.59-.002-.22.085-.426.24-.573L8 9.16l-.67-.7c-.212-.224-.467-.41-.746-.547-1.433-.7-3.852-1.917-4.236-2.298-1.77-1.754-2.405-2.57-2.35-3.196.007-.065.05-.123.11-.148.062-.025.13-.013.177.03l2.55 2.417c.115.113.31.13.444-.004l.077-.077c.133-.132.086-.357-.03-.473L.99 1.414c-.182-.216.187-.582.404-.4l2.77 2.315c.117.115.343.16.476.028l.08-.078c.132-.132.1-.343-.015-.456L2.255.284c-.094-.1-.022-.272.122-.283.636-.048 1.482.603 3.25 2.356.384.38 1.607 2.774 2.316 4.194.14.28.324.528.55.74l.745.7 2.417-2.278c.16-.15.21-.39.12-.6-.433-1.045-.102-2.212.785-3.094 1.16-1.154 3.7-2.243 4.92-1.03 1.22 1.21.11 3.746-1.053 4.9zm-2.17 9.11c.22.218.586.208.818-.022.232-.23.243-.594.023-.812-.22-.218-.586-.207-.818.023-.232.23-.24.593-.022.81zm-9.907-.963c-.23-.227-.59-.236-.806-.02-.218.215-.208.574.02.8.228.227.588.235.805.02.216-.216.207-.574-.02-.8z" id="cpath-1" class="cls-2" fill-rule="evenodd"/></svg><svg preserveAspectRatio="xMidYMid" width="56" height="60" viewBox="0 0 56 60" id="mic" y="71"><defs><style>.cls-3{fill:#ecce06}.cls-4{fill:#ecce06;stroke:#333;stroke-linejoin:round;stroke-width:2px;fill-opacity:0}</style></defs><g id="dmicsvg" fill-rule="evenodd"><path d="M48.418 58.087c-.812.575-1.95.393-2.527-.425-.074-.098-7.316-10.023-16.672-10.023-4.06 0-7.106 2.634-10.33 5.424C15.632 55.882 12.03 59 7.202 59c-1.237 0-2.554-.205-3.967-.67l-.434-.212C.6 56.658.067 54.914.007 53.708c-.17-3.437 3.224-6.294 3.612-6.61.07-.056.156-.077.232-.122l.297 2.62c-.074.095-.13.2-.225.278-.776.64-1.357 2.373-1.29 3.664.01.193 1.04 1.762 1.993 2.456 4.82 1.47 8.095-1.365 11.874-4.635 3.42-2.96 7.296-6.315 12.718-6.315 11.245 0 19.296 11.07 19.633 11.54.578.81.387.93-.432 1.502z" id="dpath-1" class="cls-3"/><path d="M53.837 26.37c-4.293-.758-8.355-2.767-11.592-5.966-3.233-3.202-5.26-7.223-6.023-11.473 4.346-2.694 10.646-1.74 15.01 2.58 4.36 4.318 5.324 10.556 2.605 14.86zM39.68 22.945c3.17 3.137 8.035 5.254 12.158 6.395-4.35 2.69-11.645.733-16.01-3.584-4.358-4.318-5.322-10.552-2.603-14.857 1.147 4.078 3.284 8.904 6.454 12.045zm-6.416 6.352c1.696 1.68 3.642 2.923 5.684 3.782L14.26 53.196c-1.44 1.425-8.888-1.365-5.13-5.085L29.45 23.67c.864 2.018 2.116 3.946 3.814 5.627z" id="dpath-2" class="cls-4"/></g></svg><svg preserveAspectRatio="xMidYMid" width="65" height="71" viewBox="0 0 65 71" id="off-afterpaty"><defs><style>.cls-3{fill:#000;stroke:#333;stroke-linejoin:round;stroke-width:2px;fill-opacity:0}.cls-4{fill:#000;stroke:#ecce06;stroke-linejoin:round;stroke-width:2px;fill-opacity:0}</style></defs><g id="eoff-afterpatysvg" fill-rule="evenodd"><path d="M26.007 65.794V39.547l19.706-19.48v-1.44H1v1.44l19.707 19.48v26.247h-7.25L11.9 70h22.914l-1.56-4.206h-7.247z" id="epath-1" class="cls-3"/><path d="M59.663 34.532c-2.847 2.814-6.633 4.364-10.66 4.364-2.948 0-5.767-.832-8.184-2.382l1.96-1.94c1.83 1.056 3.957 1.66 6.223 1.66 6.828 0 12.383-5.49 12.383-12.24 0-6.748-5.555-12.24-12.383-12.24-5.784 0-10.654 3.942-12.008 9.25H34.23c.583-2.84 1.994-5.45 4.114-7.546 2.847-2.814 6.633-4.364 10.66-4.364 4.026 0 7.81 1.55 10.66 4.364 2.846 2.815 4.414 6.557 4.414 10.537 0 3.98-1.568 7.722-4.415 10.537zM9.236 13.452l1.915-1.89 9.554 9.442h-3.83l-7.638-7.55zm38.085-.106v7.658h-1.033l-6.81-2.253c1.603-2.838 4.467-4.887 7.844-5.404zM43.868 33.5l5.89-5.822 4.138 5.95c-1.47.73-3.133 1.144-4.892 1.144-1.857 0-3.606-.46-5.136-1.27zm6.82-12.496v-7.658c3.536.542 6.512 2.765 8.063 5.817l-6.494 1.84h-1.57zm9.22 2.99c0 3.017-1.255 5.743-3.275 7.7l-4.454-6.408.935-1.065 6.663-1.887c.085.54.13 1.097.13 1.662z" id="epath-2" class="cls-4"/></g></svg></svg>