<svg xmlns="http://www.w3.org/2000/svg" xmlns:xlink="http://www.w3.org/1999/xlink" preserveAspectRatio="xMidYMid" width="137" height="99" viewBox="0 0 137 99">
  <defs>
    <style>

      .cls-3 {
        fill: #000000;
        stroke: #f8de2e;
        stroke-linejoin: round;
        stroke-width: 2px;
        fill-opacity: 0;
      }

      .cls-4 {
        fill: #000000;
        stroke: #ffffff;
        stroke-linejoin: round;
        stroke-width: 2px;
        fill-opacity: 0;
      }
    </style>
  </defs>
  <g id="back-end-iconsvg-back-end-iconpng">
    <path d="M59.921,1.001 C59.921,1.001 5.018,1.001 5.018,1.001 C2.801,1.001 0.999,2.799 0.999,5.016 C0.999,5.016 0.999,59.926 0.999,59.926 C0.999,62.135 2.797,63.936 5.018,63.936 C5.018,63.936 59.921,63.936 59.921,63.936 C62.141,63.936 63.938,62.135 63.938,59.926 C63.938,59.926 63.938,5.016 63.938,5.016 C63.938,2.799 62.141,1.001 59.921,1.001 Z" id="path-1" class="cls-4" fill-rule="evenodd"/>
    <path d="M57.956,33.380 C56.409,34.842 54.114,35.495 51.430,35.495 C50.837,35.495 50.298,35.465 49.880,35.404 C49.880,35.404 49.880,42.588 49.880,42.588 C49.880,42.588 45.387,42.588 45.387,42.588 C45.387,42.588 45.387,22.771 45.387,22.771 C46.782,22.536 48.747,22.355 51.522,22.355 C54.327,22.355 56.318,22.896 57.663,23.966 C58.944,24.983 59.807,26.648 59.807,28.613 C59.807,30.580 59.153,32.248 57.956,33.380 ZM36.874,34.182 C36.874,34.182 29.398,34.182 29.398,34.182 C29.398,34.182 29.398,42.588 29.398,42.588 C29.398,42.588 24.837,42.588 24.837,42.588 C24.837,42.588 24.837,22.503 24.837,22.503 C24.837,22.503 29.398,22.503 29.398,22.503 C29.398,22.503 29.398,30.220 29.398,30.220 C29.398,30.220 36.874,30.220 36.874,30.220 C36.874,30.220 36.874,22.503 36.874,22.503 C36.874,22.503 41.404,22.503 41.404,22.503 C41.404,22.503 41.404,42.588 41.404,42.588 C41.404,42.588 36.874,42.588 36.874,42.588 C36.874,42.588 36.874,34.182 36.874,34.182 ZM13.559,35.495 C12.962,35.495 12.426,35.465 12.010,35.404 C12.010,35.404 12.010,42.588 12.010,42.588 C12.010,42.588 7.510,42.588 7.510,42.588 C7.510,42.588 7.510,22.771 7.510,22.771 C8.910,22.536 10.877,22.355 13.652,22.355 C16.449,22.355 18.450,22.896 19.789,23.966 C21.072,24.983 21.937,26.648 21.937,28.613 C21.937,30.580 21.280,32.248 20.084,33.380 C18.536,34.842 16.240,35.495 13.559,35.495 Z" id="path-2" class="cls-3" fill-rule="evenodd"/>
  </g>
</svg>
