<svg xmlns="http://www.w3.org/2000/svg" xmlns:xlink="http://www.w3.org/1999/xlink" preserveAspectRatio="xMidYMid" width="78" height="76" viewBox="0 0 78 76">
  <defs>
    <style>

      .cls-3 {
        fill: #000000;
        stroke: #ffffff;
        stroke-linejoin: round;
        stroke-width: 2px;
        fill-opacity: 0;
      }

      .cls-4 {
        fill: #000000;
        stroke: #f8de2e;
        stroke-linejoin: round;
        stroke-width: 2px;
        fill-opacity: 0;
      }
    </style>
  </defs>
  <g id="design-iconsvg-design-iconpng">
    <path d="M51.460,74.509 C50.743,74.509 49.645,74.410 48.083,74.196 C45.960,73.901 42.977,73.392 38.890,72.612 C16.316,68.304 33.451,57.028 33.451,57.028 C34.600,56.575 35.696,56.371 36.719,56.371 C42.312,56.371 45.697,62.428 42.997,66.661 C42.200,67.912 45.701,69.895 48.694,71.554 C51.643,73.189 54.097,74.509 51.460,74.509 ZM33.000,55.597 C33.000,55.597 26.581,58.684 26.581,58.684 C26.109,58.909 25.613,59.016 25.122,59.016 C24.005,59.016 22.954,58.432 22.308,57.458 C26.130,54.766 30.298,52.725 34.704,51.244 C35.334,52.914 34.619,54.819 33.000,55.597 ZM26.098,53.094 C24.522,53.944 22.992,54.889 21.508,55.920 C21.508,55.920 20.379,53.514 20.379,53.514 C21.231,52.991 22.091,52.486 22.956,51.990 C25.294,50.653 27.688,49.431 30.179,48.428 C31.087,48.062 32.009,47.735 32.944,47.432 C32.944,47.432 33.997,49.675 33.997,49.675 C32.319,50.248 30.675,50.898 29.069,51.631 C28.065,52.089 27.072,52.569 26.098,53.094 ZM21.383,50.918 C20.814,51.251 20.247,51.584 19.684,51.928 C19.427,51.127 19.469,50.291 19.770,49.552 C20.081,48.785 20.652,48.126 21.447,47.744 C21.447,47.744 27.866,44.659 27.866,44.659 C28.338,44.432 28.834,44.324 29.325,44.324 C29.662,44.324 29.991,44.380 30.310,44.478 C31.049,44.706 31.686,45.203 32.137,45.881 C31.530,46.084 30.935,46.305 30.340,46.533 C27.231,47.722 24.267,49.234 21.383,50.918 ZM27.288,43.421 C27.288,43.421 20.870,46.505 20.870,46.505 C19.956,46.945 19.230,47.660 18.754,48.541 C14.934,44.624 10.799,38.464 7.331,31.073 C0.657,16.852 -1.018,3.527 3.591,1.312 C8.199,-0.904 17.345,8.828 24.018,23.049 C27.486,30.438 29.590,37.570 30.177,43.040 C29.897,42.989 29.615,42.952 29.325,42.952 C28.615,42.953 27.932,43.110 27.288,43.421 Z" id="path-1" class="cls-3" fill-rule="evenodd"/>
    <path d="M67.625,45.295 C57.877,38.874 69.178,28.917 73.087,23.727 C74.651,21.650 78.174,23.695 76.585,25.804 C72.964,30.613 62.752,37.991 72.042,43.181 C74.790,44.716 76.610,47.514 74.614,50.488 C72.590,53.501 66.971,53.772 63.823,54.241 C61.625,54.568 59.323,55.226 57.218,56.079 C58.072,56.468 58.981,56.777 59.854,57.108 C64.250,58.773 74.049,62.743 70.586,69.484 C67.757,74.989 59.867,74.884 53.709,75.001 C53.783,74.874 53.844,74.730 53.886,74.565 C54.221,73.230 53.140,72.473 50.527,71.009 C54.477,70.656 58.439,70.763 62.364,70.056 C70.260,68.633 65.192,63.685 60.747,61.840 C58.404,60.870 49.375,58.775 52.437,54.376 C54.282,51.725 59.217,51.098 61.974,50.391 C63.870,49.904 65.899,49.777 67.820,49.361 C72.357,48.382 70.471,47.171 67.625,45.295 Z" id="path-2" class="cls-4" fill-rule="evenodd"/>
  </g>
</svg>
