<svg xmlns="http://www.w3.org/2000/svg" xmlns:xlink="http://www.w3.org/1999/xlink" preserveAspectRatio="xMidYMid" width="58" height="67" viewBox="0 0 58 67">
  <defs>
    <style>

      .cls-3 {
        fill: #333333;
      }

      .cls-4 {
        fill: #f8de2e;
      }
    </style>
  </defs>
  <g id="evolutionsvg-evolutionpng-evolution2xpng">
    <path d="M57.587,42.047 C57.307,43.049 56.836,43.946 56.227,44.760 C56.338,45.905 56.476,51.279 49.919,56.209 C47.410,58.099 45.051,60.849 42.902,64.378 C42.902,64.378 42.690,64.627 42.690,64.627 C42.552,64.743 39.766,66.998 36.428,67.000 C35.802,67.000 35.154,66.919 34.499,66.725 C32.182,66.055 30.332,64.162 28.969,61.116 C27.603,64.162 25.756,66.055 23.438,66.725 C22.785,66.919 22.137,67.000 21.509,67.000 C18.172,67.000 15.385,64.743 15.250,64.627 C15.250,64.627 15.038,64.378 15.038,64.378 C12.888,60.847 10.527,58.095 8.021,56.209 C1.454,51.271 1.596,45.896 1.709,44.758 C1.107,43.944 0.634,43.049 0.350,42.047 C-0.870,37.697 1.417,33.161 1.780,32.480 C0.309,23.386 4.034,20.349 5.325,19.584 C4.823,13.634 8.158,11.093 9.243,10.436 C9.333,9.344 9.645,8.319 10.190,7.373 C12.289,3.761 16.975,2.597 17.642,2.447 C19.183,0.832 20.829,0.000 22.560,0.000 C22.560,0.000 22.652,0.002 22.652,0.002 C25.629,0.051 27.902,2.522 28.978,3.951 C30.055,2.522 32.328,0.051 35.304,0.002 C35.304,0.002 35.396,0.000 35.396,0.000 C37.129,0.000 38.774,0.832 40.315,2.447 C40.982,2.597 45.672,3.761 47.765,7.373 C48.311,8.319 48.617,9.344 48.713,10.436 C49.798,11.093 53.133,13.634 52.631,19.586 C53.929,20.351 57.646,23.389 56.175,32.482 C56.545,33.171 58.828,37.703 57.587,42.047 ZM27.837,5.728 C27.294,4.904 25.198,2.005 22.615,1.966 C22.615,1.966 22.564,1.963 22.564,1.963 C20.811,1.963 19.065,3.309 17.385,5.970 C17.095,6.431 16.485,6.561 16.034,6.272 C15.677,6.044 15.524,5.629 15.609,5.239 C14.284,5.860 12.755,6.855 11.887,8.365 C11.045,9.824 10.946,11.577 11.590,13.580 C11.758,14.097 11.479,14.653 10.961,14.821 C10.961,14.821 10.661,14.868 10.661,14.868 C10.246,14.868 9.859,14.602 9.728,14.186 C9.567,13.694 9.479,13.220 9.391,12.746 C7.945,14.056 5.750,17.419 8.618,24.700 C8.818,25.202 8.571,25.776 8.066,25.977 C8.066,25.977 7.704,26.046 7.704,26.046 C7.316,26.046 6.945,25.812 6.792,25.423 C6.270,24.089 5.916,22.877 5.673,21.749 C4.395,22.912 2.273,26.154 4.122,34.197 C4.243,34.727 3.916,35.259 3.386,35.380 C3.386,35.380 3.166,35.404 3.166,35.404 C3.166,35.404 2.711,35.278 2.711,35.278 C1.742,38.024 0.878,42.949 5.692,45.653 C6.165,45.921 6.333,46.521 6.066,46.995 C5.886,47.318 5.553,47.498 5.209,47.498 C5.209,47.498 4.731,47.377 4.731,47.377 C4.376,47.175 4.076,46.945 3.761,46.719 C4.086,48.609 5.252,51.659 9.202,54.631 C11.871,56.642 14.369,59.524 16.621,63.191 C17.237,63.651 20.121,65.655 22.915,64.831 C25.010,64.221 26.662,62.153 27.841,58.680 C27.841,58.680 27.837,5.728 27.837,5.728 ZM55.231,35.295 C55.231,35.295 54.793,35.412 54.793,35.412 C54.793,35.412 54.572,35.387 54.572,35.387 C54.044,35.262 53.716,34.735 53.837,34.204 C55.683,26.164 53.561,22.924 52.286,21.761 C52.041,22.887 51.692,24.099 51.164,25.431 C51.011,25.819 50.643,26.054 50.252,26.054 C50.252,26.054 49.892,25.985 49.892,25.985 C49.389,25.785 49.142,25.212 49.341,24.708 C52.209,17.425 50.011,14.064 48.567,12.754 C48.479,13.226 48.391,13.702 48.230,14.194 C48.094,14.609 47.713,14.875 47.295,14.875 C47.295,14.875 46.997,14.828 46.997,14.828 C46.482,14.661 46.200,14.105 46.367,13.587 C47.012,11.586 46.912,9.831 46.070,8.372 C45.200,6.865 43.678,5.871 42.351,5.249 C42.431,5.639 42.282,6.055 41.926,6.281 C41.476,6.573 40.865,6.441 40.574,5.980 C38.889,3.323 37.148,1.973 35.392,1.973 C35.392,1.973 35.340,1.975 35.340,1.975 C32.994,2.013 30.899,4.519 30.122,5.732 C30.122,5.732 30.122,58.686 30.122,58.686 C31.305,62.160 32.964,64.227 35.059,64.835 C37.851,65.651 40.727,63.657 41.340,63.195 C43.592,59.525 46.089,56.644 48.759,54.631 C52.707,51.663 53.877,48.613 54.197,46.727 C53.885,46.951 53.586,47.184 53.232,47.383 C53.232,47.383 52.753,47.506 52.753,47.506 C52.411,47.506 52.075,47.325 51.895,47.002 C51.629,46.525 51.800,45.925 52.271,45.659 C54.067,44.652 55.227,43.257 55.714,41.513 C56.338,39.285 55.798,36.917 55.231,35.295 ZM51.685,40.297 C51.685,40.297 51.675,40.505 51.675,40.505 C51.631,40.786 50.612,47.406 46.522,47.955 C46.522,47.955 46.390,47.962 46.390,47.962 C45.907,47.962 45.486,47.603 45.419,47.108 C45.350,46.567 45.729,46.073 46.261,45.999 C48.395,45.714 49.482,41.810 49.724,40.316 C49.276,33.417 51.723,30.871 51.830,30.764 C52.213,30.379 52.836,30.379 53.217,30.764 C53.596,31.145 53.600,31.762 53.226,32.147 C53.176,32.206 51.283,34.367 51.685,40.297 ZM41.232,48.176 C41.897,49.785 44.189,50.233 45.993,50.329 C46.533,50.359 46.949,50.822 46.924,51.356 C46.893,51.885 46.464,52.293 45.943,52.293 C45.943,52.293 45.894,52.291 45.894,52.291 C42.450,52.105 40.275,50.978 39.425,48.927 C39.065,48.055 39.021,47.129 39.141,46.226 C38.349,46.648 37.337,47.037 36.288,47.037 C36.085,47.037 35.882,47.027 35.679,46.995 C34.618,46.833 33.720,46.220 33.086,45.226 C32.787,44.768 32.925,44.158 33.379,43.863 C33.829,43.569 34.440,43.701 34.733,44.160 C35.066,44.681 35.461,44.966 35.970,45.047 C37.244,45.243 38.879,44.146 39.409,43.707 C39.586,43.561 39.796,43.503 40.001,43.495 C40.367,42.758 40.780,42.133 41.122,41.756 C45.028,37.362 45.185,33.750 45.185,33.711 C45.204,33.172 45.639,32.729 46.192,32.757 C46.729,32.770 47.158,33.215 47.146,33.758 C47.142,33.931 47.018,38.089 42.585,43.068 C41.765,43.998 40.516,46.448 41.232,48.176 ZM36.998,33.123 C36.822,33.146 36.215,33.223 35.445,33.225 C33.697,33.225 31.075,32.836 30.464,30.581 C30.325,30.056 30.629,29.514 31.156,29.371 C31.678,29.234 32.217,29.537 32.358,30.062 C32.738,31.450 35.897,31.292 36.726,31.172 C37.245,31.101 37.755,31.469 37.835,32.009 C37.908,32.548 37.533,33.046 36.998,33.123 ZM36.328,27.124 C36.328,27.124 35.955,27.198 35.955,27.198 C35.564,27.198 35.204,26.971 35.051,26.592 C32.230,19.745 34.672,10.168 34.779,9.764 C34.913,9.239 35.443,8.912 35.970,9.062 C36.495,9.198 36.809,9.735 36.671,10.264 C36.652,10.356 34.292,19.610 36.859,25.836 C37.065,26.342 36.828,26.917 36.328,27.124 ZM37.847,51.714 C38.364,51.633 38.879,51.995 38.965,52.534 C39.049,53.068 38.686,53.572 38.153,53.657 C37.981,53.684 34.444,54.327 33.492,57.957 C33.379,58.399 32.981,58.692 32.542,58.692 C32.542,58.692 32.293,58.657 32.293,58.657 C31.772,58.519 31.462,57.982 31.598,57.456 C32.883,52.554 37.642,51.746 37.847,51.714 ZM36.163,60.393 C38.638,60.975 42.540,56.206 44.421,53.084 C44.702,52.620 45.312,52.474 45.767,52.753 C46.233,53.034 46.380,53.638 46.097,54.108 C45.560,55.002 40.964,62.409 36.558,62.409 C36.280,62.409 36.010,62.375 35.737,62.320 C35.206,62.198 34.873,61.675 34.994,61.140 C35.110,60.609 35.633,60.280 36.163,60.393 ZM25.416,58.688 C24.982,58.688 24.583,58.395 24.469,57.953 C23.509,54.279 19.856,53.661 19.815,53.657 C19.282,53.572 18.915,53.068 18.999,52.530 C19.084,51.990 19.587,51.629 20.119,51.710 C20.321,51.742 25.082,52.551 26.361,57.452 C26.499,57.974 26.190,58.514 25.664,58.653 C25.664,58.653 25.416,58.688 25.416,58.688 ZM20.966,33.121 C20.429,33.044 20.058,32.546 20.130,32.008 C20.207,31.469 20.717,31.113 21.239,31.170 C22.519,31.350 25.262,31.316 25.603,30.060 C25.749,29.538 26.288,29.233 26.810,29.369 C27.333,29.512 27.637,30.052 27.498,30.579 C26.888,32.833 24.265,33.223 22.519,33.223 C21.742,33.223 21.142,33.146 20.966,33.121 ZM22.009,27.197 C22.009,27.197 21.634,27.122 21.634,27.122 C21.137,26.915 20.899,26.340 21.103,25.835 C23.674,19.596 21.313,10.355 21.293,10.260 C21.152,9.733 21.466,9.194 21.992,9.058 C22.519,8.904 23.049,9.231 23.185,9.760 C23.288,10.164 25.735,19.741 22.915,26.589 C22.758,26.969 22.392,27.197 22.009,27.197 ZM20.638,7.014 C20.594,7.038 18.859,7.956 18.640,9.570 C18.464,10.867 19.306,12.429 21.088,14.082 C21.482,14.450 21.507,15.075 21.138,15.475 C20.946,15.684 20.685,15.791 20.419,15.791 C20.180,15.791 19.942,15.703 19.752,15.528 C19.331,15.139 18.970,14.747 18.636,14.359 C18.699,14.646 18.652,14.953 18.454,15.197 C18.307,15.381 14.844,19.761 17.407,24.112 C17.407,24.112 17.507,24.351 17.507,24.351 C17.634,24.808 18.705,28.866 17.684,31.179 C17.523,31.546 17.162,31.763 16.789,31.763 C16.789,31.763 16.391,31.679 16.391,31.679 C15.897,31.457 15.673,30.876 15.893,30.378 C16.493,29.018 15.932,26.088 15.650,24.997 C12.516,19.494 16.752,14.176 16.936,13.951 C17.228,13.595 17.707,13.514 18.103,13.699 C16.979,12.186 16.499,10.706 16.703,9.279 C17.079,6.627 19.648,5.308 19.758,5.253 C20.242,5.008 20.831,5.209 21.074,5.694 C21.315,6.179 21.119,6.770 20.638,7.014 ZM16.334,33.817 C16.509,34.231 17.132,35.347 17.965,35.590 C18.391,35.717 18.870,35.590 19.413,35.214 C19.854,34.904 20.468,35.012 20.774,35.464 C21.084,35.909 20.973,36.525 20.524,36.833 C19.677,37.424 18.913,37.608 18.289,37.608 C17.948,37.608 17.648,37.552 17.403,37.479 C15.530,36.921 14.619,34.814 14.520,34.575 C13.143,31.298 11.816,31.491 11.822,31.498 C11.302,31.664 10.779,31.384 10.612,30.868 C10.441,30.350 10.745,29.785 11.259,29.612 C11.556,29.519 14.230,28.793 16.334,33.817 ZM12.540,47.108 C12.473,47.603 12.052,47.962 11.569,47.962 C11.569,47.962 11.436,47.951 11.436,47.951 C7.345,47.406 6.324,40.786 6.282,40.505 C6.282,40.505 6.272,40.293 6.272,40.293 C6.680,34.316 4.749,32.168 4.729,32.145 C4.367,31.754 4.376,31.130 4.760,30.758 C5.143,30.383 5.753,30.386 6.127,30.764 C6.235,30.871 8.682,33.417 8.237,40.316 C8.493,41.896 9.559,45.714 11.696,45.999 C12.233,46.073 12.608,46.567 12.540,47.108 ZM11.973,50.336 C13.777,50.239 16.067,49.785 16.734,48.182 C17.452,46.455 16.206,44.005 15.383,43.072 C10.951,38.092 10.822,33.937 10.818,33.763 C10.810,33.218 11.240,32.770 11.779,32.759 C12.349,32.819 12.767,33.178 12.779,33.718 C12.783,33.774 12.948,37.377 16.846,41.759 C17.183,42.142 17.596,42.764 17.965,43.503 C18.176,43.509 18.382,43.564 18.554,43.711 C19.086,44.150 20.730,45.253 21.997,45.050 C22.504,44.970 22.897,44.693 23.234,44.165 C23.525,43.711 24.134,43.580 24.588,43.869 C25.043,44.163 25.174,44.773 24.882,45.231 C24.246,46.223 23.348,46.837 22.287,46.998 C22.083,47.029 21.881,47.042 21.677,47.042 C20.631,47.042 19.617,46.652 18.825,46.232 C18.942,47.135 18.905,48.064 18.541,48.934 C17.689,50.984 15.514,52.114 12.073,52.297 C12.073,52.297 12.022,52.304 12.022,52.304 C11.502,52.304 11.073,51.896 11.045,51.367 C11.018,50.828 11.434,50.366 11.973,50.336 ZM12.192,52.753 C12.658,52.472 13.257,52.618 13.539,53.084 C15.420,56.206 19.312,60.966 21.797,60.393 C22.329,60.280 22.850,60.609 22.966,61.140 C23.080,61.673 22.751,62.198 22.219,62.317 C21.946,62.375 21.676,62.406 21.400,62.406 C16.995,62.406 12.396,55.000 11.859,54.106 C11.580,53.636 11.730,53.036 12.192,52.753 Z" id="path-1" class="cls-3" fill-rule="evenodd"/>
    <path d="M47.330,30.865 C47.161,31.363 46.644,31.647 46.137,31.500 C46.043,31.508 44.779,31.402 43.444,34.585 C43.349,34.815 42.435,36.928 40.562,37.483 C40.317,37.556 40.019,37.610 39.678,37.610 C39.049,37.610 38.289,37.425 37.441,36.837 C36.993,36.527 36.885,35.913 37.192,35.466 C37.498,35.016 38.113,34.904 38.553,35.216 C39.099,35.597 39.570,35.715 40.001,35.594 C40.832,35.347 41.460,34.231 41.635,33.825 C43.741,28.793 46.411,29.519 46.709,29.617 C47.219,29.789 47.498,30.346 47.330,30.865 ZM42.315,24.999 C41.926,26.483 41.531,29.154 42.071,30.378 C42.291,30.874 42.067,31.457 41.573,31.679 C41.573,31.679 41.179,31.763 41.179,31.763 C40.804,31.763 40.444,31.546 40.283,31.179 C39.260,28.866 40.334,24.804 40.459,24.351 C40.459,24.351 40.559,24.115 40.559,24.115 C43.136,19.740 39.547,15.241 39.511,15.199 C39.310,14.954 39.264,14.647 39.329,14.362 C38.992,14.747 38.630,15.136 38.211,15.528 C38.019,15.703 37.782,15.791 37.544,15.791 C37.280,15.791 37.020,15.684 36.824,15.475 C36.457,15.075 36.481,14.452 36.878,14.082 C38.663,12.423 39.509,10.857 39.321,9.559 C39.090,7.943 37.349,7.026 37.330,7.016 C36.847,6.773 36.650,6.181 36.891,5.696 C37.135,5.211 37.722,5.012 38.207,5.254 C38.318,5.309 40.888,6.629 41.263,9.280 C41.464,10.707 40.985,12.188 39.859,13.702 C40.256,13.516 40.738,13.599 41.026,13.953 C41.210,14.177 45.449,19.494 42.315,24.999 Z" id="path-2" class="cls-4" fill-rule="evenodd"/>
  </g>
</svg>
