<svg xmlns="http://www.w3.org/2000/svg" xmlns:xlink="http://www.w3.org/1999/xlink" preserveAspectRatio="xMidYMid" width="80" height="67" viewBox="0 0 80 67">
  <defs>
    <style>

      .cls-3 {
        fill: #000000;
        stroke: #ffffff;
        stroke-linejoin: round;
        stroke-width: 2px;
        fill-opacity: 0;
      }

      .cls-4 {
        fill: #000000;
        stroke: #f8de2e;
        stroke-linejoin: round;
        stroke-width: 2px;
        fill-opacity: 0;
      }
    </style>
  </defs>
  <g id="for-who-iconsvg-for-who-iconpng">
    <path d="M78.266,64.615 C77.683,65.288 76.829,65.677 75.929,65.677 C75.929,65.677 52.282,65.677 52.282,65.677 C51.382,65.677 50.528,65.288 49.945,64.615 C49.361,63.940 49.107,63.047 49.250,62.173 C49.250,62.173 52.319,43.325 52.319,43.325 C53.247,37.622 58.242,33.427 64.105,33.427 C69.968,33.427 74.963,37.622 75.892,43.325 C75.892,43.325 78.961,62.173 78.961,62.173 C79.103,63.047 78.849,63.940 78.266,64.615 ZM57.377,27.089 C50.580,27.089 45.069,21.661 45.069,14.964 C45.069,8.266 50.580,2.838 57.377,2.838 C64.174,2.838 69.685,8.266 69.685,14.964 C69.685,21.661 64.174,27.089 57.377,27.089 ZM43.251,65.676 C43.251,65.676 33.266,65.676 33.266,65.676 C32.891,65.676 32.539,65.497 32.322,65.197 C32.106,64.895 32.051,64.509 32.174,64.161 C33.056,61.676 35.435,59.890 38.259,59.890 C41.082,59.890 43.461,61.676 44.343,64.161 C44.466,64.509 44.411,64.895 44.194,65.197 C43.976,65.497 43.625,65.676 43.251,65.676 Z" id="path-1" class="cls-3" fill-rule="evenodd"/>
    <path d="M25.238,45.808 C24.639,46.025 24.026,46.129 23.422,46.129 C21.285,46.129 19.277,44.834 18.495,42.742 C18.495,42.742 5.486,7.960 5.486,7.960 C4.482,5.279 5.875,2.304 8.597,1.316 C11.317,0.334 14.337,1.700 15.340,4.383 C15.340,4.383 28.349,39.165 28.349,39.165 C29.353,41.846 27.960,44.820 25.238,45.808 ZM8.877,26.874 C8.877,26.874 8.877,55.304 8.877,55.304 C8.877,56.922 10.214,58.240 11.857,58.240 C11.857,58.240 24.959,58.240 24.959,58.240 C27.135,58.240 28.898,59.977 28.898,62.120 C28.898,64.263 27.135,66.000 24.960,66.000 C24.960,66.000 11.857,66.000 11.857,66.000 C5.870,66.000 1.000,61.201 1.000,55.304 C1.000,55.304 1.000,26.874 1.000,26.874 C1.000,24.730 2.763,22.993 4.938,22.993 C7.114,22.993 8.877,24.730 8.877,26.874 Z" id="path-2" class="cls-4" fill-rule="evenodd"/>
  </g>
</svg>
