<svg xmlns="http://www.w3.org/2000/svg" xmlns:xlink="http://www.w3.org/1999/xlink" preserveAspectRatio="xMidYMid" width="112" height="90" viewBox="0 0 112 90">
  <defs>
    <style>

      .cls-3 {
        fill: #000000;
        stroke: #ffffff;
        stroke-linejoin: round;
        stroke-width: 2px;
        fill-opacity: 0;
      }

      .cls-4 {
        fill: #000000;
        stroke: #f8de2e;
        stroke-linejoin: round;
        stroke-width: 2px;
        fill-opacity: 0;
      }
    </style>
  </defs>
  <g id="front-end-iconsvg-front-end-iconpng">
    <path d="M32.092,61.306 C32.092,61.306 32.092,61.334 32.092,61.334 C32.092,61.334 32.045,61.320 32.045,61.320 C32.045,61.320 31.999,61.334 31.999,61.334 M40.299,36.584 C40.299,36.584 39.517,45.314 39.517,45.314 C39.517,45.314 31.985,47.339 31.985,47.339 C31.985,47.339 31.968,47.344 31.968,47.344 C31.968,47.344 24.441,45.323 24.441,45.323 C24.441,45.323 23.959,39.948 23.959,39.948 C23.959,39.948 17.172,39.948 17.172,39.948 C17.172,39.948 18.118,50.523 18.118,50.523 C18.118,50.523 31.968,54.350 31.968,54.350 C31.968,54.350 31.976,54.350 31.976,54.350 C31.976,54.350 31.985,54.350 31.985,54.350 C31.985,54.350 31.999,54.346 31.999,54.346 C31.999,54.346 45.835,50.523 45.835,50.523 C45.835,50.523 47.691,29.851 47.691,29.851 C47.691,29.851 23.052,29.851 23.052,29.851 C23.052,29.851 22.436,22.956 22.436,22.956 C22.436,22.956 48.282,22.956 48.282,22.956 C48.282,22.956 48.305,22.956 48.305,22.956 C48.305,22.956 48.910,16.223 48.910,16.223 C48.910,16.223 15.045,16.223 15.045,16.223 C15.045,16.223 16.869,36.584 16.869,36.584 C16.869,36.584 40.299,36.584 40.299,36.584 C40.299,36.584 40.299,36.584 40.299,36.584 Z" id="path-1" class="cls-4" fill-rule="evenodd"/>
    <path d="M8.998,9.000 C8.998,9.000 13.911,63.902 13.911,63.902 C13.911,63.902 35.966,70.000 35.966,70.000 C35.966,70.000 58.079,63.893 58.079,63.893 C58.079,63.893 63.001,9.000 63.001,9.000 C63.001,9.000 8.998,9.000 8.998,9.000 ZM35.999,65.334 C35.999,65.334 35.999,65.306 35.999,65.306 C35.999,65.306 18.222,60.398 18.222,60.398 C18.222,60.398 14.021,13.488 14.021,13.488 C14.021,13.488 58.070,13.488 58.070,13.488 C58.070,13.488 53.869,60.398 53.869,60.398 C53.869,60.398 36.092,65.306 36.092,65.306 " id="path-2" class="cls-3" fill-rule="evenodd"/>
  </g>
</svg>
