<svg xmlns="http://www.w3.org/2000/svg" xmlns:xlink="http://www.w3.org/1999/xlink" preserveAspectRatio="xMidYMid" width="18" height="16" viewBox="0 0 18 16">
  <defs>
    <style>

      .cls-2 {
        fill: #a9a9a9;
      }
    </style>
  </defs>
  <path d="M16.427,5.888 C15.464,6.846 14.426,7.126 13.338,6.673 C13.124,6.584 12.893,6.597 12.740,6.757 C12.740,6.757 10.463,9.142 10.463,9.142 C10.463,9.142 15.841,14.198 15.841,14.198 C15.999,14.346 16.103,14.572 16.100,14.795 C16.097,15.016 16.021,15.250 15.858,15.411 C15.858,15.411 15.515,15.751 15.515,15.751 C15.353,15.913 15.118,15.989 14.894,15.992 C14.670,15.995 14.451,15.900 14.301,15.744 C14.301,15.744 9.226,10.438 9.226,10.438 C9.226,10.438 4.333,15.563 4.333,15.563 C4.184,15.718 3.977,15.804 3.756,15.801 C3.536,15.799 3.321,15.707 3.162,15.549 C3.162,15.549 2.825,15.214 2.825,15.214 C2.666,15.055 2.574,14.842 2.571,14.624 C2.568,14.405 2.655,14.198 2.811,14.051 C2.811,14.051 8.001,9.158 8.001,9.158 C8.001,9.158 7.331,8.458 7.331,8.458 C7.118,8.234 6.863,8.048 6.584,7.911 C5.151,7.209 2.732,5.993 2.348,5.612 C0.578,3.858 -0.057,3.041 -0.001,2.416 C0.005,2.351 0.048,2.293 0.109,2.268 C0.170,2.243 0.239,2.255 0.285,2.298 C0.285,2.298 2.836,4.715 2.836,4.715 C2.950,4.828 3.145,4.844 3.279,4.711 C3.279,4.711 3.357,4.633 3.357,4.633 C3.490,4.501 3.443,4.276 3.326,4.160 C3.326,4.160 0.991,1.414 0.991,1.414 C0.808,1.198 1.177,0.832 1.394,1.014 C1.394,1.014 4.164,3.329 4.164,3.329 C4.281,3.445 4.507,3.491 4.640,3.358 C4.640,3.358 4.719,3.280 4.719,3.280 C4.852,3.148 4.819,2.937 4.705,2.824 C4.705,2.824 2.256,0.285 2.256,0.285 C2.161,0.185 2.233,0.012 2.377,0.001 C3.013,-0.048 3.859,0.603 5.627,2.356 C6.011,2.736 7.234,5.130 7.943,6.550 C8.082,6.830 8.267,7.078 8.494,7.291 C8.494,7.291 9.238,7.991 9.238,7.991 C9.238,7.991 11.655,5.712 11.655,5.712 C11.816,5.561 11.864,5.323 11.775,5.111 C11.342,4.067 11.673,2.900 12.560,2.018 C13.721,0.864 16.259,-0.225 17.479,0.987 C18.699,2.199 17.589,4.734 16.427,5.888 ZM14.258,14.998 C14.478,15.216 14.843,15.206 15.075,14.976 C15.307,14.745 15.318,14.382 15.098,14.164 C14.878,13.946 14.512,13.957 14.280,14.187 C14.048,14.418 14.039,14.780 14.258,14.998 ZM4.350,14.035 C4.121,13.808 3.761,13.799 3.544,14.015 C3.326,14.230 3.336,14.589 3.564,14.816 C3.792,15.042 4.152,15.050 4.369,14.835 C4.586,14.619 4.577,14.261 4.350,14.035 Z" id="path-1" class="cls-2" fill-rule="evenodd"/>
</svg>
