<svg xmlns="http://www.w3.org/2000/svg" xmlns:xlink="http://www.w3.org/1999/xlink" preserveAspectRatio="xMidYMid" width="56" height="60" viewBox="0 0 56 60">
  <defs>
    <style>

      .cls-3 {
        fill: #ecce06;
      }

      .cls-4 {
        fill: #ecce06;
        stroke: #333333;
        stroke-linejoin: round;
        stroke-width: 2px;
        fill-opacity: 0;
      }
    </style>
  </defs>
  <g id="micsvg">
    <path d="M48.418,58.087 C47.606,58.662 46.468,58.480 45.891,57.662 C45.816,57.564 38.574,47.639 29.218,47.639 C25.159,47.639 22.112,50.274 18.888,53.064 C15.632,55.882 12.030,58.999 7.202,58.999 C5.965,58.999 4.648,58.795 3.235,58.329 C3.235,58.329 2.801,58.118 2.801,58.118 C0.598,56.658 0.066,54.914 0.006,53.707 C-0.163,50.271 3.230,47.414 3.618,47.098 C3.689,47.042 3.774,47.021 3.850,46.976 C3.850,46.976 4.147,49.597 4.147,49.597 C4.073,49.691 4.018,49.797 3.922,49.874 C3.146,50.513 2.565,52.247 2.632,53.538 C2.643,53.731 3.671,55.300 4.625,55.994 C9.444,57.465 12.720,54.629 16.499,51.359 C19.920,48.400 23.796,45.045 29.218,45.045 C40.463,45.045 48.514,56.114 48.851,56.584 C49.428,57.395 49.237,57.514 48.418,58.087 Z" id="path-1" class="cls-3" fill-rule="evenodd"/>
    <path d="M53.837,26.370 C49.544,25.612 45.482,23.603 42.245,20.404 C39.012,17.202 36.984,13.181 36.222,8.931 C40.568,6.236 46.868,7.191 51.232,11.509 C55.592,15.828 56.556,22.066 53.837,26.370 ZM39.679,22.945 C42.851,26.082 47.715,28.199 51.838,29.340 C47.489,32.030 40.193,30.073 35.829,25.756 C31.470,21.438 30.506,15.204 33.225,10.899 C34.372,14.978 36.509,19.804 39.679,22.945 ZM33.264,29.297 C34.960,30.978 36.906,32.220 38.948,33.079 C38.948,33.079 14.261,53.197 14.261,53.197 C12.820,54.622 5.372,51.832 9.129,48.112 C9.129,48.112 29.449,23.669 29.449,23.669 C30.314,25.688 31.566,27.616 33.264,29.297 Z" id="path-2" class="cls-4" fill-rule="evenodd"/>
  </g>
</svg>
