<svg xmlns="http://www.w3.org/2000/svg" xmlns:xlink="http://www.w3.org/1999/xlink" preserveAspectRatio="xMidYMid" width="65" height="71" viewBox="0 0 65 71">
  <defs>
    <style>

      .cls-3 {
        fill: #000000;
        stroke: #333333;
        stroke-linejoin: round;
        stroke-width: 2px;
        fill-opacity: 0;
      }

      .cls-4 {
        fill: #000000;
        stroke: #ecce06;
        stroke-linejoin: round;
        stroke-width: 2px;
        fill-opacity: 0;
      }
    </style>
  </defs>
  <g id="off-afterpatysvg">
    <path d="M26.007,65.794 C26.007,65.794 26.007,39.547 26.007,39.547 C26.007,39.547 45.713,20.067 45.713,20.067 C45.713,20.067 45.713,18.627 45.713,18.627 C45.713,18.627 1.000,18.627 1.000,18.627 C1.000,18.627 1.000,20.067 1.000,20.067 C1.000,20.067 20.707,39.547 20.707,39.547 C20.707,39.547 20.707,65.794 20.707,65.794 C20.707,65.794 13.458,65.794 13.458,65.794 C13.458,65.794 11.899,70.000 11.899,70.000 C11.899,70.000 34.814,70.000 34.814,70.000 C34.814,70.000 33.255,65.794 33.255,65.794 C33.255,65.794 26.007,65.794 26.007,65.794 Z" id="path-1" class="cls-3" fill-rule="evenodd"/>
    <path d="M59.663,34.532 C56.816,37.346 53.030,38.896 49.003,38.896 C46.055,38.896 43.236,38.064 40.819,36.514 C40.819,36.514 42.781,34.574 42.781,34.574 C44.611,35.630 46.737,36.235 49.003,36.235 C55.831,36.235 61.386,30.744 61.386,23.995 C61.386,17.246 55.831,11.755 49.003,11.755 C43.219,11.755 38.349,15.696 36.995,21.004 C36.995,21.004 34.231,21.004 34.231,21.004 C34.813,18.164 36.224,15.554 38.344,13.458 C41.191,10.644 44.977,9.094 49.003,9.094 C53.030,9.094 56.815,10.644 59.663,13.458 C62.510,16.273 64.078,20.015 64.078,23.995 C64.078,27.975 62.510,31.717 59.663,34.532 ZM9.236,13.453 C9.236,13.453 11.151,11.561 11.151,11.561 C11.151,11.561 20.704,21.004 20.704,21.004 C20.704,21.004 16.874,21.004 16.874,21.004 C16.874,21.004 9.236,13.453 9.236,13.453 ZM47.321,13.346 C47.321,13.346 47.321,21.004 47.321,21.004 C47.321,21.004 46.287,21.004 46.287,21.004 C46.287,21.004 39.477,18.751 39.477,18.751 C41.080,15.912 43.944,13.863 47.321,13.346 ZM43.867,33.501 C43.867,33.501 49.758,27.678 49.758,27.678 C49.758,27.678 53.895,33.628 53.895,33.628 C52.424,34.359 50.762,34.772 49.003,34.772 C47.146,34.772 45.397,34.311 43.867,33.501 ZM50.686,21.004 C50.686,21.004 50.686,13.346 50.686,13.346 C54.223,13.888 57.199,16.111 58.750,19.163 C58.750,19.163 52.256,21.004 52.256,21.004 C52.256,21.004 50.686,21.004 50.686,21.004 ZM59.906,23.995 C59.906,27.011 58.652,29.737 56.632,31.693 C56.632,31.693 52.178,25.286 52.178,25.286 C52.178,25.286 53.113,24.221 53.113,24.221 C53.113,24.221 59.776,22.333 59.776,22.333 C59.861,22.874 59.906,23.430 59.906,23.995 Z" id="path-2" class="cls-4" fill-rule="evenodd"/>
  </g>
</svg>
