<svg xmlns="http://www.w3.org/2000/svg" xmlns:xlink="http://www.w3.org/1999/xlink" preserveAspectRatio="xMidYMid" width="71" height="78" viewBox="0 0 71 78">
  <defs>
    <style>

      .cls-3 {
        fill: #000000;
        stroke: #ffffff;
        stroke-linejoin: round;
        stroke-width: 2px;
        fill-opacity: 0;
      }

      .cls-4 {
        fill: #000000;
        stroke: #f8de2e;
        stroke-linejoin: round;
        stroke-width: 2px;
        fill-opacity: 0;
      }
    </style>
  </defs>
  <g id="qa-iconsvg-qa-iconpng">
    <path d="M69.912,32.133 C70.253,31.005 69.637,29.811 68.536,29.460 C67.430,29.115 66.267,29.741 65.926,30.872 C65.926,30.872 63.373,39.284 62.828,41.087 C61.716,41.401 58.340,42.371 56.002,43.030 C55.917,42.650 55.846,42.268 55.764,41.896 C55.764,41.896 23.245,41.896 23.245,41.896 C23.153,42.268 23.083,42.650 23.004,43.030 C20.663,42.369 17.282,41.401 16.175,41.087 C15.629,39.281 13.077,30.868 13.077,30.868 C12.741,29.738 11.564,29.112 10.466,29.457 C9.363,29.808 8.752,31.005 9.096,32.130 C9.096,32.130 12.863,44.569 12.863,44.569 C12.863,44.569 22.400,47.277 22.400,47.277 C22.327,48.186 22.281,49.091 22.281,50.022 C22.281,51.164 22.342,52.286 22.444,53.388 C22.444,53.388 12.921,57.741 12.921,57.741 C12.921,57.741 9.950,74.941 9.950,74.941 C9.745,76.100 10.499,77.205 11.638,77.416 C12.772,77.619 13.856,76.842 14.055,75.683 C14.055,75.683 16.312,62.641 16.648,60.713 C17.560,60.290 20.581,58.916 23.147,57.741 C25.410,67.577 31.874,74.688 39.503,74.688 C47.134,74.688 53.602,67.577 55.863,57.741 C58.425,58.916 61.449,60.290 62.363,60.713 C62.692,62.641 64.956,75.683 64.956,75.683 C65.152,76.842 66.241,77.619 67.379,77.416 C68.513,77.205 69.268,76.100 69.061,74.941 C69.061,74.941 66.085,57.741 66.085,57.741 C66.085,57.741 56.564,53.390 56.564,53.390 C56.666,52.289 56.729,51.167 56.729,50.024 C56.729,49.097 56.678,48.190 56.610,47.279 C56.610,47.279 66.147,44.572 66.147,44.572 C66.147,44.572 69.912,32.133 69.912,32.133 Z" id="path-1" class="cls-3" fill-rule="evenodd"/>
    <path d="M20.102,12.582 C20.492,12.655 29.547,14.522 31.491,24.949 C29.027,27.610 27.499,31.338 27.499,35.481 C27.499,35.518 27.502,35.556 27.502,35.591 C27.502,35.591 53.317,35.591 53.317,35.591 C53.317,35.556 53.323,35.518 53.323,35.481 M53.323,35.481 C53.323,31.335 51.788,27.610 49.323,24.949 C51.269,14.522 60.330,12.655 60.722,12.582 C61.564,12.423 62.129,11.594 61.975,10.721 C61.814,9.852 61.008,9.280 60.160,9.434 C60.046,9.454 49.615,11.518 46.622,22.702 C44.775,21.558 42.661,20.908 40.409,20.908 C38.163,20.908 36.045,21.560 34.197,22.702 C31.205,11.518 20.774,9.454 20.663,9.434 C19.812,9.278 19.007,9.852 18.845,10.721 C18.687,11.594 19.253,12.426 20.102,12.582 " id="path-2" class="cls-4" fill-rule="evenodd"/>
  </g>
</svg>
