<svg xmlns="http://www.w3.org/2000/svg" xmlns:xlink="http://www.w3.org/1999/xlink" preserveAspectRatio="xMidYMid" width="43" height="79" viewBox="0 0 43 79">
  <defs>
    <style>

      .cls-3 {
        fill: #000000;
        stroke: #ffffff;
        stroke-linejoin: round;
        stroke-width: 2px;
        fill-opacity: 0;
      }

      .cls-4 {
        fill: #000000;
        stroke: #f8de2e;
        stroke-linejoin: round;
        stroke-width: 2px;
        fill-opacity: 0;
      }
    </style>
  </defs>
  <g id="startapers-iconsvg-startapers-iconpng">
    <path d="M35.828,45.975 C33.796,48.583 31.547,51.962 29.807,54.897 C29.807,54.897 29.807,60.864 29.807,60.864 C29.807,60.864 13.082,60.864 13.082,60.864 C13.082,60.864 13.082,54.734 13.082,54.734 C11.327,51.717 9.300,48.718 7.161,45.972 C4.720,42.838 3.258,38.890 3.258,34.591 C3.258,24.400 11.423,16.138 21.497,16.138 C31.568,16.138 39.732,24.400 39.732,34.591 C39.732,38.893 38.271,42.840 35.828,45.975 ZM14.744,63.791 C14.744,63.791 28.244,63.791 28.244,63.791 C29.289,63.791 30.138,64.649 30.138,65.706 C30.138,66.765 29.289,67.622 28.244,67.622 C28.244,67.622 14.744,67.622 14.744,67.622 C13.699,67.622 12.851,66.765 12.851,65.706 C12.851,64.649 13.699,63.791 14.744,63.791 ZM24.980,74.956 C24.724,76.676 23.269,78.000 21.499,78.000 C19.726,78.000 18.274,76.676 18.018,74.956 C15.696,74.820 13.849,72.892 13.849,70.511 C13.849,70.511 29.139,70.511 29.139,70.511 C29.139,72.891 27.297,74.818 24.980,74.956 Z" id="path-1" class="cls-3" fill-rule="evenodd"/>
    <path d="M41.518,10.964 C41.518,10.964 38.066,15.773 38.066,15.773 C37.571,16.462 36.802,16.828 36.020,16.828 C35.507,16.828 34.987,16.669 34.539,16.340 C33.412,15.512 33.160,13.914 33.979,12.773 C33.979,12.773 37.430,7.964 37.430,7.964 C38.251,6.821 39.824,6.564 40.958,7.397 C42.085,8.225 42.336,9.823 41.518,10.964 ZM21.499,12.052 C20.103,12.052 18.975,10.908 18.975,9.497 C18.975,9.497 18.975,3.554 18.975,3.554 C18.975,2.143 20.103,1.000 21.499,1.000 C22.895,1.000 24.024,2.143 24.024,3.554 C24.024,3.554 24.024,9.497 24.024,9.497 C24.024,10.908 22.895,12.052 21.499,12.052 ZM6.979,16.828 C6.197,16.828 5.427,16.462 4.931,15.774 C4.931,15.774 1.481,10.964 1.481,10.964 C0.662,9.823 0.914,8.225 2.040,7.397 C3.171,6.566 4.747,6.823 5.568,7.964 C5.568,7.964 9.019,12.773 9.019,12.773 C9.838,13.914 9.587,15.512 8.460,16.340 C8.011,16.669 7.491,16.828 6.979,16.828 Z" id="path-2" class="cls-4" fill-rule="evenodd"/>
  </g>
</svg>
